<?xml version="1.0" encoding="UTF-8" standalone="no"?>
<!-- Created with Inkscape (http://www.inkscape.org/) -->

<svg
   xmlns:dc="http://purl.org/dc/elements/1.1/"
   xmlns:cc="http://creativecommons.org/ns#"
   xmlns:rdf="http://www.w3.org/1999/02/22-rdf-syntax-ns#"
   xmlns:svg="http://www.w3.org/2000/svg"
   xmlns="http://www.w3.org/2000/svg"
   xmlns:sodipodi="http://sodipodi.sourceforge.net/DTD/sodipodi-0.dtd"
   xmlns:inkscape="http://www.inkscape.org/namespaces/inkscape"
   width="56.286915mm"
   height="10.583332mm"
   viewBox="0 0 56.286914 10.583332"
   version="1.1"
   id="svg8"
   sodipodi:docname="logo.svg"
   inkscape:version="0.92.3 (2405546, 2018-03-11)">
  <defs
     id="defs2" />
  <sodipodi:namedview
     id="base"
     pagecolor="#ffffff"
     bordercolor="#666666"
     borderopacity="1.0"
     inkscape:pageopacity="0.0"
     inkscape:pageshadow="2"
     inkscape:zoom="3.959798"
     inkscape:cx="106.07814"
     inkscape:cy="40.162495"
     inkscape:document-units="mm"
     inkscape:current-layer="flowRoot815"
     showgrid="false"
     inkscape:window-width="1920"
     inkscape:window-height="1028"
     inkscape:window-x="0"
     inkscape:window-y="0"
     inkscape:window-maximized="1"
     fit-margin-top="0"
     fit-margin-left="0"
     fit-margin-right="0"
     fit-margin-bottom="0" />
  <metadata
     id="metadata5">
    <rdf:RDF>
      <cc:Work
         rdf:about="">
        <dc:format>image/svg+xml</dc:format>
        <dc:type
           rdf:resource="http://purl.org/dc/dcmitype/StillImage" />
        <dc:title></dc:title>
      </cc:Work>
    </rdf:RDF>
  </metadata>
  <g
     inkscape:label="Layer 1"
     inkscape:groupmode="layer"
     id="layer1"
     transform="translate(-8.5439953,-26.283667)">
    <g
       aria-label="truthonly"
       transform="scale(0.26458333)"
       style="font-style:normal;font-weight:normal;font-size:40px;line-height:1.25;font-family:sans-serif;letter-spacing:0px;word-spacing:0px;fill:#000000;fill-opacity:1;stroke:none"
       id="flowRoot815">
      <path
         d="m 42.372266,129.33984 h 6.4 v -4.4 c -9.44,0.04 -10.88,-0.72 -10.88,-6 v -5.2 h 10.88 v -4.4 h -10.88 v -9.999996 h -5.6 v 19.599996 c 0,7.6 2.68,10.4 10.08,10.4 z"
         style="font-style:normal;font-variant:normal;font-weight:bold;font-stretch:normal;font-size:40px;font-family:Hermit;-inkscape-font-specification:'Hermit, Bold';font-variant-ligatures:normal;font-variant-caps:normal;font-variant-numeric:normal;font-feature-settings:normal;text-align:start;writing-mode:lr-tb;text-anchor:start;fill:#cbd9de;fill-opacity:1"
         id="path863"
         inkscape:connector-curvature="0" />
      <path
         d="m 55.579766,129.33984 h 5.2 v -9.6 c 0,-5.8 -0.52,-6 4.84,-6 h 0.08 c 3.68,0 4.92,0.64 4.76,2.8 h 5.2 c 0.24,-7.2 -6.36,-7.2 -10.04,-7.2 -9.84,0 -10.04,0.28 -10.04,10.4 z"
         style="font-style:normal;font-variant:normal;font-weight:bold;font-stretch:normal;font-size:40px;font-family:Hermit;-inkscape-font-specification:'Hermit, Bold';font-variant-ligatures:normal;font-variant-caps:normal;font-variant-numeric:normal;font-feature-settings:normal;text-align:start;writing-mode:lr-tb;text-anchor:start;fill:#cbd9de;fill-opacity:1"
         id="path865"
         inkscape:connector-curvature="0" />
      <path
         d="m 90.307266,129.33984 c 9.800004,0 10.040004,-0.28 10.040004,-9.6 v -10.4 h -5.200004 v 10.4 c 0,5.04 0.56,5.2 -4.84,5.2 -4.8,0 -4.84,-5.24 -4.84,-5.2 v -10.4 h -5.2 v 10.4 c 0,0.04 0.04,9.6 10.04,9.6 z"
         style="font-style:normal;font-variant:normal;font-weight:bold;font-stretch:normal;font-size:40px;font-family:Hermit;-inkscape-font-specification:'Hermit, Bold';font-variant-ligatures:normal;font-variant-caps:normal;font-variant-numeric:normal;font-feature-settings:normal;text-align:start;writing-mode:lr-tb;text-anchor:start;fill:#cbd9de;fill-opacity:1"
         id="path867"
         inkscape:connector-curvature="0" />
      <path
         d="m 116.43477,129.33984 h 6.4 v -4.4 c -9.44,0.04 -10.88,-0.72 -10.88,-6 v -5.2 h 10.88 v -4.4 h -10.88 v -9.999996 h -5.6 v 19.599996 c 0,7.6 2.68,10.4 10.08,10.4 z"
         style="font-style:normal;font-variant:normal;font-weight:bold;font-stretch:normal;font-size:40px;font-family:Hermit;-inkscape-font-specification:'Hermit, Bold';font-variant-ligatures:normal;font-variant-caps:normal;font-variant-numeric:normal;font-feature-settings:normal;text-align:start;writing-mode:lr-tb;text-anchor:start;fill:#cbd9de;fill-opacity:1"
         id="path869"
         inkscape:connector-curvature="0" />
      <path
         d="m 129.64227,129.33984 h 5.2 v -15.6 h 4.84 c 4.8,0 4.84,5.64 4.84,5.6 v 10 h 5.2 v -10 c 0,-0.04 -0.04,-10 -10.04,-10 h -4.84 v -9.999996 h -5.2 z"
         style="font-style:normal;font-variant:normal;font-weight:bold;font-stretch:normal;font-size:40px;font-family:Hermit;-inkscape-font-specification:'Hermit, Bold';font-variant-ligatures:normal;font-variant-caps:normal;font-variant-numeric:normal;font-feature-settings:normal;text-align:start;writing-mode:lr-tb;text-anchor:start;fill:#cbd9de;fill-opacity:1"
         id="path871"
         inkscape:connector-curvature="0" />
      <path
         d="m 167.39306,129.33984 c 5.6,0 10.04,0 10.04,-10 0,-10 -4.44,-10 -10.04,-10 -5.6,0 -10.04,0 -10.04,10 0,10 4.44,10 10.04,10 z m 0,-4.4 c -3.6,0 -4.84,0 -4.84,-5.6 0,-5.6 1.24,-5.6 4.84,-5.6 3.6,0 4.84,0 4.84,5.6 0,5.6 -1.24,5.6 -4.84,5.6 z"
         style="font-style:normal;font-variant:normal;font-weight:bold;font-stretch:normal;font-size:40px;font-family:Hermit;-inkscape-font-specification:'Hermit, Bold';font-variant-ligatures:normal;font-variant-caps:normal;font-variant-numeric:normal;font-feature-settings:normal;text-align:start;writing-mode:lr-tb;text-anchor:start;fill:#9ab6c0;fill-opacity:1"
         id="path873"
         inkscape:connector-curvature="0" />
      <path
         d="m 182.04056,129.33984 h 5.2 v -10.4 c 0,-5.04 -0.56,-5.2 4.84,-5.2 4.8,0 4.84,5.24 4.84,5.2 v 10.4 h 5.2 v -10.4 c 0,-0.04 -0.04,-9.6 -10.04,-9.6 -9.8,0 -10.04,0.28 -10.04,9.6 z"
         style="font-style:normal;font-variant:normal;font-weight:bold;font-stretch:normal;font-size:40px;font-family:Hermit;-inkscape-font-specification:'Hermit, Bold';font-variant-ligatures:normal;font-variant-caps:normal;font-variant-numeric:normal;font-feature-settings:normal;text-align:start;writing-mode:lr-tb;text-anchor:start;fill:#9ab6c0;fill-opacity:1"
         id="path875"
         inkscape:connector-curvature="0" />
      <path
         d="m 228.39022,139.33984 h 5.36 l 11.28,-30 h -5.48 l -4.68,12.56 -4.72,-12.56 h -5.48 l 7.48,20 z"
         style="font-style:normal;font-variant:normal;font-weight:bold;font-stretch:normal;font-size:40px;font-family:Hermit;-inkscape-font-specification:'Hermit, Bold';font-variant-ligatures:normal;font-variant-caps:normal;font-variant-numeric:normal;font-feature-settings:normal;text-align:start;writing-mode:lr-tb;text-anchor:start;fill:#9ab6c0;fill-opacity:1"
         id="path879"
         inkscape:connector-curvature="0" />
    </g>
    <path
       d="m 57.535793,34.221166 h 1.693334 v -1.164167 c -2.497667,0.01058 -2.878667,-0.1905 -2.878667,-1.5875 0,-5.185832 0,0 0,-5.185832 h -1.481667 v 5.185832 c 0,2.010834 0.709084,2.751667 2.667,2.751667 z"
       style="font-style:normal;font-variant:normal;font-weight:bold;font-stretch:normal;font-size:40px;line-height:1.25;font-family:Hermit;-inkscape-font-specification:'Hermit, Bold';font-variant-ligatures:normal;font-variant-caps:normal;font-variant-numeric:normal;font-feature-settings:normal;text-align:start;letter-spacing:0px;word-spacing:0px;writing-mode:lr-tb;text-anchor:start;fill:#9ab6c0;fill-opacity:1;stroke:none;stroke-width:0.26458332"
       id="path869-6"
       inkscape:connector-curvature="0"
       sodipodi:nodetypes="sccsccss" />
  </g>
</svg>
