<svg xmlns="http://www.w3.org/2000/svg" width="212.738" height="40" viewBox="0 0 56.287 10.583"><g aria-label="truthonly" style="font-style:normal;font-weight:400;font-size:40px;line-height:1.25;font-family:sans-serif;letter-spacing:0;word-spacing:0;fill:#000;fill-opacity:1;stroke:none"><path d="M42.372 129.34h6.4v-4.4c-9.44.04-10.88-.72-10.88-6v-5.2h10.88v-4.4h-10.88v-10h-5.6v19.6c0 7.6 2.68 10.4 10.08 10.4zm13.208 0h5.2v-9.6c0-5.8-.52-6 4.84-6h.08c3.68 0 4.92.64 4.76 2.8h5.2c.24-7.2-6.36-7.2-10.04-7.2-9.84 0-10.04.28-10.04 10.4zm34.727 0c9.8 0 10.04-.28 10.04-9.6v-10.4h-5.2v10.4c0 5.04.56 5.2-4.84 5.2-4.8 0-4.84-5.24-4.84-5.2v-10.4h-5.2v10.4c0 .04.04 9.6 10.04 9.6zm26.128 0h6.4v-4.4c-9.44.04-10.88-.72-10.88-6v-5.2h10.88v-4.4h-10.88v-10h-5.6v19.6c0 7.6 2.68 10.4 10.08 10.4zm13.207 0h5.2v-15.6h4.84c4.8 0 4.84 5.64 4.84 5.6v10h5.2v-10c0-.04-.04-10-10.04-10h-4.84v-10h-5.2z" style="font-style:normal;font-variant:normal;font-weight:700;font-stretch:normal;font-size:40px;font-family:Hermit;-inkscape-font-specification:'Hermit, Bold';font-variant-ligatures:normal;font-variant-caps:normal;font-variant-numeric:normal;font-feature-settings:normal;text-align:start;writing-mode:lr-tb;text-anchor:start;fill:#cbd9de;fill-opacity:1" transform="translate(-8.544 -26.284) scale(.26458)"/><path d="M167.393 129.34c5.6 0 10.04 0 10.04-10s-4.44-10-10.04-10c-5.6 0-10.04 0-10.04 10s4.44 10 10.04 10zm0-4.4c-3.6 0-4.84 0-4.84-5.6s1.24-5.6 4.84-5.6c3.6 0 4.84 0 4.84 5.6s-1.24 5.6-4.84 5.6zm14.647 4.4h5.2v-10.4c0-5.04-.56-5.2 4.84-5.2 4.8 0 4.84 5.24 4.84 5.2v10.4h5.2v-10.4c0-.04-.04-9.6-10.04-9.6-9.8 0-10.04.28-10.04 9.6zm46.35 10h5.36l11.28-30h-5.48l-4.68 12.56-4.72-12.56h-5.48l7.48 20z" style="font-style:normal;font-variant:normal;font-weight:700;font-stretch:normal;font-size:40px;font-family:Hermit;-inkscape-font-specification:'Hermit, Bold';font-variant-ligatures:normal;font-variant-caps:normal;font-variant-numeric:normal;font-feature-settings:normal;text-align:start;writing-mode:lr-tb;text-anchor:start;fill:#9ab6c0;fill-opacity:1" transform="translate(-8.544 -26.284) scale(.26458)"/></g><path d="M57.536 34.221h1.693v-1.164c-2.498.01-2.879-.19-2.879-1.588v-5.185h-1.48v5.185c0 2.011.709 2.752 2.667 2.752z" style="font-style:normal;font-variant:normal;font-weight:700;font-stretch:normal;font-size:40px;line-height:1.25;font-family:Hermit;-inkscape-font-specification:'Hermit, Bold';font-variant-ligatures:normal;font-variant-caps:normal;font-variant-numeric:normal;font-feature-settings:normal;text-align:start;letter-spacing:0;word-spacing:0;writing-mode:lr-tb;text-anchor:start;fill:#9ab6c0;fill-opacity:1;stroke:none;stroke-width:.26458332" transform="translate(-8.544 -26.284)"/></svg>